<?xml version="1.0" encoding="utf-8"?>
<!-- Generator: Adobe Illustrator 14.0.0, SVG Export Plug-In . SVG Version: 6.00 Build 43363)  -->
<!DOCTYPE svg PUBLIC "-//W3C//DTD SVG 1.1//EN" "http://www.w3.org/Graphics/SVG/1.1/DTD/svg11.dtd">
<svg version="1.1" id="Layer_1" xmlns="http://www.w3.org/2000/svg" xmlns:xlink="http://www.w3.org/1999/xlink" x="0px" y="0px"
	 width="74.014px" height="18.334px" viewBox="0 0 74.014 18.334" enable-background="new 0 0 74.014 18.334" xml:space="preserve">
<g>
	<g>
		<path fill="#222222" d="M16.157,4.688c-0.8,0-1.529,0.152-2.192,0.458c-0.664,0.308-1.181,0.731-1.553,1.273h-0.359
			c-0.77-1.153-2.104-1.731-4.003-1.731c-0.847,0-1.601,0.158-2.264,0.478C5.123,5.482,4.617,5.943,4.268,6.549H4.001L3.431,4.92H0
			v13.181h4.547V12.33c0-1.442,0.162-2.479,0.489-3.119C5.361,8.577,5.881,8.26,6.594,8.26c0.52,0,0.896,0.223,1.128,0.669
			c0.233,0.445,0.349,1.113,0.349,2.007v7.164h4.56v-6.143c0-1.271,0.165-2.207,0.489-2.804c0.326-0.596,0.837-0.896,1.536-0.896
			c0.527,0,0.914,0.223,1.157,0.668c0.244,0.446,0.368,1.114,0.368,2.009v7.164h4.547V9.526c0-1.629-0.372-2.841-1.117-3.642
			C18.867,5.086,17.715,4.688,16.157,4.688z M29.753,4.688c-2.085,0-3.69,0.594-4.813,1.785c-1.126,1.189-1.688,2.898-1.688,5.125
			c0,2.152,0.605,3.815,1.819,4.981c1.213,1.167,2.919,1.752,5.111,1.752c1.058,0,1.963-0.072,2.722-0.21
			c0.762-0.143,1.498-0.393,2.212-0.757v-3.269c-0.785,0.363-1.514,0.622-2.182,0.771c-0.673,0.152-1.408,0.229-2.205,0.229
			c-0.878,0-1.569-0.211-2.078-0.63c-0.508-0.42-0.777-0.995-0.81-1.733h8.132v-2.022c0-1.945-0.539-3.435-1.622-4.471
			C33.272,5.206,31.738,4.688,29.753,4.688z M27.94,9.875c0.063-0.721,0.271-1.25,0.632-1.587c0.36-0.338,0.81-0.505,1.344-0.505
			c0.583,0,1.045,0.188,1.392,0.57c0.344,0.379,0.524,0.888,0.542,1.521L27.94,9.875L27.94,9.875z M38.548,18.099h4.548V0h-4.548
			V18.099z M55.728,5.514c-0.992-0.552-2.139-0.826-3.432-0.826c-2.095,0-3.722,0.594-4.881,1.785
			c-1.16,1.189-1.738,2.86-1.738,5.008c0,2.102,0.592,3.77,1.773,5c1.182,1.232,2.774,1.853,4.773,1.853
			c2.085,0,3.71-0.604,4.869-1.812c1.156-1.205,1.738-2.889,1.738-5.041c0-1.373-0.271-2.572-0.81-3.602
			C57.486,6.854,56.721,6.065,55.728,5.514z M73.204,7.88c-0.539-1.025-1.307-1.814-2.299-2.366
			c-0.991-0.553-2.138-0.826-3.431-0.826c-2.096,0-3.721,0.594-4.879,1.785c-1.159,1.19-1.739,2.86-1.739,5.008
			c0,2.102,0.593,3.77,1.771,5c1.185,1.232,2.773,1.853,4.773,1.853c2.087,0,3.71-0.604,4.869-1.812
			c1.159-1.205,1.739-2.889,1.739-5.041C74.013,10.108,73.743,8.909,73.204,7.88z"/>
	</g>
</g>
</svg>
